<mxfile host="Electron" modified="2020-12-30T07:50:05.057Z" agent="5.0 (Windows NT 10.0; Win64; x64) AppleWebKit/537.36 (KHTML, like Gecko) draw.io/13.2.2 Chrome/83.0.4103.100 Electron/9.0.3 Safari/537.36" etag="x2RXM1D2mc7d0vmbHLBx" version="13.2.2" type="device">
  <diagram id="oKr3xOL5UfjdKAAR6X1v" name="Page-1">
    <mxGraphModel dx="3047" dy="2151" grid="1" gridSize="10" guides="1" tooltips="1" connect="1" arrows="1" fold="1" page="1" pageScale="1" pageWidth="827" pageHeight="1169" math="0" shadow="0">
      <root>
        <mxCell id="0" />
        <mxCell id="1" parent="0" />
        <mxCell id="7rffKDkid3tjZV2UipF3-48" style="edgeStyle=orthogonalEdgeStyle;rounded=0;orthogonalLoop=1;jettySize=auto;html=1;exitX=1;exitY=0.5;exitDx=0;exitDy=0;endArrow=openThin;endFill=0;strokeWidth=1;endSize=9;" parent="1" source="7rffKDkid3tjZV2UipF3-46" target="7rffKDkid3tjZV2UipF3-47" edge="1">
          <mxGeometry relative="1" as="geometry" />
        </mxCell>
        <mxCell id="7rffKDkid3tjZV2UipF3-46" value="nats.NewInbox()" style="rounded=1;whiteSpace=wrap;html=1;" parent="1" vertex="1">
          <mxGeometry x="-1480" y="125" width="180" height="30" as="geometry" />
        </mxCell>
        <mxCell id="dKYVOy73eWO02Rp_x5jJ-9" style="edgeStyle=orthogonalEdgeStyle;rounded=0;orthogonalLoop=1;jettySize=auto;html=1;exitX=0.5;exitY=1;exitDx=0;exitDy=0;startArrow=none;startFill=0;" parent="1" source="7rffKDkid3tjZV2UipF3-47" target="7rffKDkid3tjZV2UipF3-51" edge="1">
          <mxGeometry relative="1" as="geometry" />
        </mxCell>
        <mxCell id="7rffKDkid3tjZV2UipF3-47" value="Create Inbox" style="rounded=0;whiteSpace=wrap;html=1;" parent="1" vertex="1">
          <mxGeometry x="-1250" y="120" width="170" height="40" as="geometry" />
        </mxCell>
        <mxCell id="7rffKDkid3tjZV2UipF3-75" style="edgeStyle=orthogonalEdgeStyle;rounded=0;orthogonalLoop=1;jettySize=auto;html=1;exitX=0.145;exitY=1;exitDx=0;exitDy=-4.35;exitPerimeter=0;entryX=1;entryY=0.5;entryDx=0;entryDy=0;dashed=1;endArrow=openThin;endFill=0;" parent="1" source="7rffKDkid3tjZV2UipF3-49" target="7rffKDkid3tjZV2UipF3-63" edge="1">
          <mxGeometry relative="1" as="geometry">
            <Array as="points">
              <mxPoint x="-953" y="395" />
            </Array>
          </mxGeometry>
        </mxCell>
        <mxCell id="7rffKDkid3tjZV2UipF3-76" value="first response" style="edgeLabel;html=1;align=center;verticalAlign=middle;resizable=0;points=[];" parent="7rffKDkid3tjZV2UipF3-75" vertex="1" connectable="0">
          <mxGeometry x="0.3339" y="1" relative="1" as="geometry">
            <mxPoint x="-11" y="-1.8" as="offset" />
          </mxGeometry>
        </mxCell>
        <mxCell id="7rffKDkid3tjZV2UipF3-86" style="edgeStyle=orthogonalEdgeStyle;rounded=0;orthogonalLoop=1;jettySize=auto;html=1;exitX=0.5;exitY=1;exitDx=0;exitDy=0;exitPerimeter=0;entryX=0.75;entryY=0;entryDx=0;entryDy=0;dashed=1;endArrow=openThin;endFill=0;" parent="1" source="7rffKDkid3tjZV2UipF3-49" target="7rffKDkid3tjZV2UipF3-77" edge="1">
          <mxGeometry relative="1" as="geometry">
            <Array as="points">
              <mxPoint x="-910" y="450" />
              <mxPoint x="-1012" y="450" />
            </Array>
          </mxGeometry>
        </mxCell>
        <mxCell id="dKYVOy73eWO02Rp_x5jJ-1" style="edgeStyle=orthogonalEdgeStyle;rounded=0;orthogonalLoop=1;jettySize=auto;html=1;exitX=1;exitY=0.5;exitDx=0;exitDy=0;exitPerimeter=0;entryX=0;entryY=0.5;entryDx=0;entryDy=0;entryPerimeter=0;dashed=1;startArrow=openThin;startFill=0;endArrow=openThin;endFill=0;" parent="1" source="7rffKDkid3tjZV2UipF3-49" target="7rffKDkid3tjZV2UipF3-94" edge="1">
          <mxGeometry relative="1" as="geometry" />
        </mxCell>
        <mxCell id="dKYVOy73eWO02Rp_x5jJ-10" style="edgeStyle=orthogonalEdgeStyle;rounded=0;orthogonalLoop=1;jettySize=auto;html=1;exitX=0.5;exitY=1;exitDx=0;exitDy=0;startArrow=none;startFill=0;" parent="1" source="7rffKDkid3tjZV2UipF3-51" edge="1">
          <mxGeometry relative="1" as="geometry">
            <mxPoint x="-1165" y="290" as="targetPoint" />
          </mxGeometry>
        </mxCell>
        <mxCell id="7rffKDkid3tjZV2UipF3-51" value="Subscribe to Inbox" style="rounded=0;whiteSpace=wrap;html=1;" parent="1" vertex="1">
          <mxGeometry x="-1250" y="202.5" width="170" height="40" as="geometry" />
        </mxCell>
        <mxCell id="dKYVOy73eWO02Rp_x5jJ-12" style="edgeStyle=orthogonalEdgeStyle;rounded=0;orthogonalLoop=1;jettySize=auto;html=1;exitX=1;exitY=0.5;exitDx=0;exitDy=0;startArrow=none;startFill=0;endArrow=openThin;endFill=0;endSize=9;strokeWidth=1;" parent="1" source="7rffKDkid3tjZV2UipF3-52" target="7rffKDkid3tjZV2UipF3-51" edge="1">
          <mxGeometry relative="1" as="geometry" />
        </mxCell>
        <mxCell id="7rffKDkid3tjZV2UipF3-52" value="nats.SubscribeSync()" style="rounded=1;whiteSpace=wrap;html=1;" parent="1" vertex="1">
          <mxGeometry x="-1480" y="207.5" width="180" height="30" as="geometry" />
        </mxCell>
        <mxCell id="dKYVOy73eWO02Rp_x5jJ-11" style="edgeStyle=orthogonalEdgeStyle;rounded=0;orthogonalLoop=1;jettySize=auto;html=1;exitX=0.5;exitY=1;exitDx=0;exitDy=0;entryX=0.5;entryY=0;entryDx=0;entryDy=0;startArrow=none;startFill=0;" parent="1" source="dKYVOy73eWO02Rp_x5jJ-20" target="7rffKDkid3tjZV2UipF3-63" edge="1">
          <mxGeometry relative="1" as="geometry">
            <mxPoint x="-1165" y="330" as="sourcePoint" />
          </mxGeometry>
        </mxCell>
        <mxCell id="dKYVOy73eWO02Rp_x5jJ-13" style="edgeStyle=orthogonalEdgeStyle;rounded=0;orthogonalLoop=1;jettySize=auto;html=1;exitX=1;exitY=0.5;exitDx=0;exitDy=0;entryX=0;entryY=0.5;entryDx=0;entryDy=0;startArrow=none;startFill=0;endArrow=openThin;endFill=0;endSize=9;strokeWidth=1;" parent="1" source="7rffKDkid3tjZV2UipF3-56" target="dKYVOy73eWO02Rp_x5jJ-20" edge="1">
          <mxGeometry relative="1" as="geometry">
            <mxPoint x="-1250" y="310" as="targetPoint" />
          </mxGeometry>
        </mxCell>
        <mxCell id="7rffKDkid3tjZV2UipF3-56" value="nats.PublishRequest()" style="rounded=1;whiteSpace=wrap;html=1;" parent="1" vertex="1">
          <mxGeometry x="-1480" y="287.5" width="180" height="30" as="geometry" />
        </mxCell>
        <mxCell id="7rffKDkid3tjZV2UipF3-62" style="edgeStyle=orthogonalEdgeStyle;rounded=0;orthogonalLoop=1;jettySize=auto;html=1;exitX=1;exitY=0.5;exitDx=0;exitDy=0;entryX=0;entryY=0.5;entryDx=0;entryDy=0;endSize=9;endArrow=openThin;endFill=0;" parent="1" source="7rffKDkid3tjZV2UipF3-61" target="7rffKDkid3tjZV2UipF3-63" edge="1">
          <mxGeometry relative="1" as="geometry">
            <mxPoint x="-1250" y="312.5" as="targetPoint" />
          </mxGeometry>
        </mxCell>
        <mxCell id="7rffKDkid3tjZV2UipF3-61" value="ibusnats.handleNATSResponse()" style="rounded=1;whiteSpace=wrap;html=1;" parent="1" vertex="1">
          <mxGeometry x="-1480" y="362.5" width="180" height="30" as="geometry" />
        </mxCell>
        <mxCell id="7rffKDkid3tjZV2UipF3-70" style="edgeStyle=orthogonalEdgeStyle;rounded=0;orthogonalLoop=1;jettySize=auto;html=1;exitX=0;exitY=0.5;exitDx=0;exitDy=0;entryX=0.5;entryY=0;entryDx=0;entryDy=0;dashed=1;endArrow=openThin;endFill=0;" parent="1" source="7rffKDkid3tjZV2UipF3-82" target="7rffKDkid3tjZV2UipF3-68" edge="1">
          <mxGeometry relative="1" as="geometry" />
        </mxCell>
        <mxCell id="7rffKDkid3tjZV2UipF3-71" style="edgeStyle=orthogonalEdgeStyle;rounded=0;orthogonalLoop=1;jettySize=auto;html=1;exitX=1;exitY=0.5;exitDx=0;exitDy=0;entryX=0.5;entryY=0;entryDx=0;entryDy=0;" parent="1" source="7rffKDkid3tjZV2UipF3-82" target="7rffKDkid3tjZV2UipF3-77" edge="1">
          <mxGeometry relative="1" as="geometry" />
        </mxCell>
        <mxCell id="7rffKDkid3tjZV2UipF3-84" style="edgeStyle=orthogonalEdgeStyle;rounded=0;orthogonalLoop=1;jettySize=auto;html=1;exitX=0.5;exitY=1;exitDx=0;exitDy=0;" parent="1" source="7rffKDkid3tjZV2UipF3-63" target="7rffKDkid3tjZV2UipF3-82" edge="1">
          <mxGeometry relative="1" as="geometry" />
        </mxCell>
        <mxCell id="7rffKDkid3tjZV2UipF3-63" value="handle response" style="rounded=0;whiteSpace=wrap;html=1;" parent="1" vertex="1">
          <mxGeometry x="-1250" y="375" width="170" height="40" as="geometry" />
        </mxCell>
        <mxCell id="7rffKDkid3tjZV2UipF3-68" value="ibus.Response" style="rounded=1;whiteSpace=wrap;html=1;" parent="1" vertex="1">
          <mxGeometry x="-1350" y="537.5" width="140" height="30" as="geometry" />
        </mxCell>
        <mxCell id="7rffKDkid3tjZV2UipF3-69" value="ibus.ISection" style="shape=parallelogram;perimeter=parallelogramPerimeter;whiteSpace=wrap;html=1;fixedSize=1;" parent="1" vertex="1">
          <mxGeometry x="-1115" y="605" width="120" height="30" as="geometry" />
        </mxCell>
        <mxCell id="7rffKDkid3tjZV2UipF3-80" style="edgeStyle=orthogonalEdgeStyle;rounded=0;orthogonalLoop=1;jettySize=auto;html=1;exitX=0;exitY=0.5;exitDx=0;exitDy=0;entryX=1;entryY=0.25;entryDx=0;entryDy=0;endSize=9;endArrow=openThin;endFill=0;" parent="1" source="7rffKDkid3tjZV2UipF3-72" target="7rffKDkid3tjZV2UipF3-77" edge="1">
          <mxGeometry relative="1" as="geometry" />
        </mxCell>
        <mxCell id="7rffKDkid3tjZV2UipF3-72" value="ibusnats.getSectionsFromNATS()" style="rounded=1;whiteSpace=wrap;html=1;" parent="1" vertex="1">
          <mxGeometry x="-920" y="520" width="200" height="30" as="geometry" />
        </mxCell>
        <mxCell id="7rffKDkid3tjZV2UipF3-74" style="edgeStyle=orthogonalEdgeStyle;rounded=0;orthogonalLoop=1;jettySize=auto;html=1;exitX=1;exitY=0.5;exitDx=0;exitDy=0;entryX=0;entryY=0.75;entryDx=0;entryDy=0;endSize=9;endArrow=openThin;endFill=0;" parent="1" source="7rffKDkid3tjZV2UipF3-73" target="7rffKDkid3tjZV2UipF3-63" edge="1">
          <mxGeometry relative="1" as="geometry" />
        </mxCell>
        <mxCell id="7rffKDkid3tjZV2UipF3-73" value="ibusnats.getNATSResponse()" style="rounded=1;whiteSpace=wrap;html=1;" parent="1" vertex="1">
          <mxGeometry x="-1480" y="410" width="180" height="30" as="geometry" />
        </mxCell>
        <mxCell id="7rffKDkid3tjZV2UipF3-78" style="edgeStyle=orthogonalEdgeStyle;rounded=0;orthogonalLoop=1;jettySize=auto;html=1;exitX=0.5;exitY=1;exitDx=0;exitDy=0;entryX=0.5;entryY=0;entryDx=0;entryDy=0;dashed=1;" parent="1" source="7rffKDkid3tjZV2UipF3-77" target="7rffKDkid3tjZV2UipF3-69" edge="1">
          <mxGeometry relative="1" as="geometry" />
        </mxCell>
        <mxCell id="7rffKDkid3tjZV2UipF3-77" value="sectioned response" style="rounded=0;whiteSpace=wrap;html=1;" parent="1" vertex="1">
          <mxGeometry x="-1140" y="532.5" width="170" height="40" as="geometry" />
        </mxCell>
        <mxCell id="7rffKDkid3tjZV2UipF3-81" style="edgeStyle=orthogonalEdgeStyle;rounded=0;orthogonalLoop=1;jettySize=auto;html=1;exitX=0;exitY=0.5;exitDx=0;exitDy=0;entryX=1;entryY=0.75;entryDx=0;entryDy=0;endArrow=openThin;endFill=0;endSize=9;" parent="1" source="7rffKDkid3tjZV2UipF3-79" target="7rffKDkid3tjZV2UipF3-77" edge="1">
          <mxGeometry relative="1" as="geometry" />
        </mxCell>
        <mxCell id="7rffKDkid3tjZV2UipF3-79" value="ibusnats.getNATSResponse()" style="rounded=1;whiteSpace=wrap;html=1;" parent="1" vertex="1">
          <mxGeometry x="-920" y="555" width="200" height="30" as="geometry" />
        </mxCell>
        <mxCell id="7rffKDkid3tjZV2UipF3-82" value="" style="ellipse;whiteSpace=wrap;html=1;aspect=fixed;" parent="1" vertex="1">
          <mxGeometry x="-1185" y="460" width="40" height="40" as="geometry" />
        </mxCell>
        <mxCell id="7rffKDkid3tjZV2UipF3-90" style="edgeStyle=orthogonalEdgeStyle;rounded=0;orthogonalLoop=1;jettySize=auto;html=1;exitX=0.5;exitY=1;exitDx=0;exitDy=0;entryX=0.5;entryY=0;entryDx=0;entryDy=0;" parent="1" source="7rffKDkid3tjZV2UipF3-87" target="7rffKDkid3tjZV2UipF3-47" edge="1">
          <mxGeometry relative="1" as="geometry" />
        </mxCell>
        <mxCell id="7rffKDkid3tjZV2UipF3-87" value="ibusnats.implSendRequest2()" style="rounded=1;whiteSpace=wrap;html=1;" parent="1" vertex="1">
          <mxGeometry x="-1250" y="40" width="170" height="40" as="geometry" />
        </mxCell>
        <mxCell id="7rffKDkid3tjZV2UipF3-89" style="edgeStyle=orthogonalEdgeStyle;rounded=0;orthogonalLoop=1;jettySize=auto;html=1;exitX=0.5;exitY=1;exitDx=0;exitDy=0;entryX=0.5;entryY=0;entryDx=0;entryDy=0;" parent="1" source="7rffKDkid3tjZV2UipF3-88" target="7rffKDkid3tjZV2UipF3-87" edge="1">
          <mxGeometry relative="1" as="geometry" />
        </mxCell>
        <mxCell id="7rffKDkid3tjZV2UipF3-88" value="ibus.SendRequest2()" style="rounded=1;whiteSpace=wrap;html=1;fillColor=#dae8fc;strokeColor=#6c8ebf;" parent="1" vertex="1">
          <mxGeometry x="-1235" y="-40" width="140" height="40" as="geometry" />
        </mxCell>
        <mxCell id="7rffKDkid3tjZV2UipF3-96" style="edgeStyle=orthogonalEdgeStyle;rounded=0;orthogonalLoop=1;jettySize=auto;html=1;exitX=1;exitY=0.5;exitDx=0;exitDy=0;exitPerimeter=0;entryX=0;entryY=0.5;entryDx=0;entryDy=0;dashed=1;endArrow=openThin;endFill=0;" parent="1" source="7rffKDkid3tjZV2UipF3-94" target="7rffKDkid3tjZV2UipF3-95" edge="1">
          <mxGeometry relative="1" as="geometry" />
        </mxCell>
        <mxCell id="7rffKDkid3tjZV2UipF3-94" value="NATS queue" style="shape=cylinder3;whiteSpace=wrap;html=1;boundedLbl=1;backgroundOutline=1;size=15;" parent="1" vertex="1">
          <mxGeometry x="-520" y="185" width="120" height="60" as="geometry" />
        </mxCell>
        <mxCell id="7rffKDkid3tjZV2UipF3-98" style="edgeStyle=orthogonalEdgeStyle;rounded=0;orthogonalLoop=1;jettySize=auto;html=1;exitX=0.5;exitY=1;exitDx=0;exitDy=0;" parent="1" source="7rffKDkid3tjZV2UipF3-95" target="7rffKDkid3tjZV2UipF3-97" edge="1">
          <mxGeometry relative="1" as="geometry" />
        </mxCell>
        <mxCell id="7rffKDkid3tjZV2UipF3-95" value="ibusnats.nATSMsgHandler()" style="rounded=1;whiteSpace=wrap;html=1;" parent="1" vertex="1">
          <mxGeometry x="-320" y="115" width="180" height="30" as="geometry" />
        </mxCell>
        <mxCell id="7rffKDkid3tjZV2UipF3-100" style="edgeStyle=orthogonalEdgeStyle;rounded=0;orthogonalLoop=1;jettySize=auto;html=1;exitX=1;exitY=0.5;exitDx=0;exitDy=0;" parent="1" source="7rffKDkid3tjZV2UipF3-97" target="7rffKDkid3tjZV2UipF3-99" edge="1">
          <mxGeometry relative="1" as="geometry" />
        </mxCell>
        <mxCell id="7rffKDkid3tjZV2UipF3-97" value="ibus.RequestHandler()" style="rounded=1;whiteSpace=wrap;html=1;fillColor=#dae8fc;strokeColor=#6c8ebf;" parent="1" vertex="1">
          <mxGeometry x="-300" y="187.5" width="140" height="40" as="geometry" />
        </mxCell>
        <mxCell id="7rffKDkid3tjZV2UipF3-105" style="edgeStyle=orthogonalEdgeStyle;rounded=0;orthogonalLoop=1;jettySize=auto;html=1;exitX=0.5;exitY=0;exitDx=0;exitDy=0;entryX=0.5;entryY=1;entryDx=0;entryDy=0;" parent="1" source="7rffKDkid3tjZV2UipF3-99" target="7rffKDkid3tjZV2UipF3-102" edge="1">
          <mxGeometry relative="1" as="geometry" />
        </mxCell>
        <mxCell id="7rffKDkid3tjZV2UipF3-106" style="edgeStyle=orthogonalEdgeStyle;rounded=0;orthogonalLoop=1;jettySize=auto;html=1;exitX=0.5;exitY=1;exitDx=0;exitDy=0;" parent="1" source="7rffKDkid3tjZV2UipF3-99" target="7rffKDkid3tjZV2UipF3-103" edge="1">
          <mxGeometry relative="1" as="geometry" />
        </mxCell>
        <mxCell id="7rffKDkid3tjZV2UipF3-99" value="" style="ellipse;whiteSpace=wrap;html=1;aspect=fixed;" parent="1" vertex="1">
          <mxGeometry x="-91.25" y="187.5" width="42.5" height="42.5" as="geometry" />
        </mxCell>
        <mxCell id="7rffKDkid3tjZV2UipF3-108" style="edgeStyle=orthogonalEdgeStyle;rounded=0;orthogonalLoop=1;jettySize=auto;html=1;exitX=0.5;exitY=0;exitDx=0;exitDy=0;entryX=1;entryY=0.5;entryDx=0;entryDy=0;endArrow=openThin;endFill=0;endSize=9;" parent="1" source="7rffKDkid3tjZV2UipF3-101" target="7rffKDkid3tjZV2UipF3-102" edge="1">
          <mxGeometry relative="1" as="geometry">
            <mxPoint x="360" y="109.5" as="sourcePoint" />
            <mxPoint x="170" y="62" as="targetPoint" />
            <Array as="points">
              <mxPoint x="190" y="70" />
            </Array>
          </mxGeometry>
        </mxCell>
        <mxCell id="7rffKDkid3tjZV2UipF3-109" value="IReseulSenderCloseable" style="edgeLabel;html=1;align=center;verticalAlign=middle;resizable=0;points=[];" parent="7rffKDkid3tjZV2UipF3-108" vertex="1" connectable="0">
          <mxGeometry x="-0.1535" y="-3" relative="1" as="geometry">
            <mxPoint y="23" as="offset" />
          </mxGeometry>
        </mxCell>
        <mxCell id="7rffKDkid3tjZV2UipF3-101" value="ibus.SendParallelResponse2()" style="rounded=1;whiteSpace=wrap;html=1;" parent="1" vertex="1">
          <mxGeometry x="100" y="145" width="180" height="40" as="geometry" />
        </mxCell>
        <mxCell id="7rffKDkid3tjZV2UipF3-110" style="edgeStyle=orthogonalEdgeStyle;rounded=0;orthogonalLoop=1;jettySize=auto;html=1;exitX=0;exitY=0.5;exitDx=0;exitDy=0;dashed=1;endArrow=openThin;endFill=0;endSize=6;" parent="1" source="7rffKDkid3tjZV2UipF3-102" target="7rffKDkid3tjZV2UipF3-94" edge="1">
          <mxGeometry relative="1" as="geometry" />
        </mxCell>
        <mxCell id="7rffKDkid3tjZV2UipF3-102" value="response sectioned" style="rounded=0;whiteSpace=wrap;html=1;" parent="1" vertex="1">
          <mxGeometry x="-155" y="50" width="170" height="40" as="geometry" />
        </mxCell>
        <mxCell id="7rffKDkid3tjZV2UipF3-111" style="edgeStyle=orthogonalEdgeStyle;rounded=0;orthogonalLoop=1;jettySize=auto;html=1;exitX=0;exitY=0.5;exitDx=0;exitDy=0;entryX=0.5;entryY=1;entryDx=0;entryDy=0;entryPerimeter=0;dashed=1;endArrow=openThin;endFill=0;" parent="1" source="7rffKDkid3tjZV2UipF3-103" target="7rffKDkid3tjZV2UipF3-94" edge="1">
          <mxGeometry relative="1" as="geometry" />
        </mxCell>
        <mxCell id="7rffKDkid3tjZV2UipF3-103" value="single response" style="rounded=0;whiteSpace=wrap;html=1;" parent="1" vertex="1">
          <mxGeometry x="-155" y="312.5" width="170" height="40" as="geometry" />
        </mxCell>
        <mxCell id="7rffKDkid3tjZV2UipF3-107" style="edgeStyle=orthogonalEdgeStyle;rounded=0;orthogonalLoop=1;jettySize=auto;html=1;exitX=0;exitY=0.5;exitDx=0;exitDy=0;entryX=1;entryY=0.5;entryDx=0;entryDy=0;endArrow=openThin;endFill=0;endSize=9;" parent="1" source="7rffKDkid3tjZV2UipF3-104" target="7rffKDkid3tjZV2UipF3-103" edge="1">
          <mxGeometry relative="1" as="geometry" />
        </mxCell>
        <mxCell id="7rffKDkid3tjZV2UipF3-104" value="ibus.SendResponse()" style="rounded=1;whiteSpace=wrap;html=1;" parent="1" vertex="1">
          <mxGeometry x="100" y="312.5" width="180" height="40" as="geometry" />
        </mxCell>
        <mxCell id="dKYVOy73eWO02Rp_x5jJ-6" value="ibusnats.getNATSResponse()" style="rounded=1;whiteSpace=wrap;html=1;" parent="1" vertex="1">
          <mxGeometry x="-920" y="555" width="200" height="30" as="geometry" />
        </mxCell>
        <mxCell id="dKYVOy73eWO02Rp_x5jJ-7" value="sectioned response" style="rounded=0;whiteSpace=wrap;html=1;" parent="1" vertex="1">
          <mxGeometry x="-1140" y="532.5" width="170" height="40" as="geometry" />
        </mxCell>
        <mxCell id="dKYVOy73eWO02Rp_x5jJ-20" value="publish request" style="rounded=0;whiteSpace=wrap;html=1;" parent="1" vertex="1">
          <mxGeometry x="-1250" y="282.5" width="170" height="40" as="geometry" />
        </mxCell>
        <mxCell id="tiqXGuEHnp4EDLRBs4JA-1" value="Sender Node" style="html=1;outlineConnect=0;whiteSpace=wrap;fillColor=#AFFFAF;shape=mxgraph.archimate3.application;appType=node;archiType=square;" vertex="1" parent="1">
          <mxGeometry x="-1240" y="-120" width="150" height="45" as="geometry" />
        </mxCell>
        <mxCell id="tiqXGuEHnp4EDLRBs4JA-2" value="" style="edgeStyle=elbowEdgeStyle;html=1;endArrow=open;elbow=vertical;endFill=1;" edge="1" parent="1" source="tiqXGuEHnp4EDLRBs4JA-1" target="7rffKDkid3tjZV2UipF3-88">
          <mxGeometry width="160" relative="1" as="geometry">
            <mxPoint x="-930" y="-120" as="sourcePoint" />
            <mxPoint x="-770" y="-120" as="targetPoint" />
          </mxGeometry>
        </mxCell>
        <mxCell id="tiqXGuEHnp4EDLRBs4JA-4" value="NATS" style="html=1;outlineConnect=0;whiteSpace=wrap;fillColor=#AFFFAF;shape=mxgraph.archimate3.tech;techType=sysSw;" vertex="1" parent="1">
          <mxGeometry x="-950" y="-120" width="160" height="45" as="geometry" />
        </mxCell>
        <mxCell id="tiqXGuEHnp4EDLRBs4JA-5" value="Create" style="edgeStyle=elbowEdgeStyle;html=1;endArrow=open;elbow=vertical;endFill=0;dashed=1;dashPattern=1 4;exitX=1;exitY=0.5;exitDx=0;exitDy=0;strokeWidth=2;" edge="1" parent="1" source="7rffKDkid3tjZV2UipF3-47" target="7rffKDkid3tjZV2UipF3-49">
          <mxGeometry width="160" relative="1" as="geometry">
            <mxPoint x="-1030" y="90" as="sourcePoint" />
            <mxPoint x="-690" y="-20" as="targetPoint" />
          </mxGeometry>
        </mxCell>
        <mxCell id="tiqXGuEHnp4EDLRBs4JA-6" value="" style="edgeStyle=elbowEdgeStyle;html=1;endArrow=none;elbow=vertical;dashed=1;startFill=0;dashPattern=1 4;exitX=1;exitY=0.5;exitDx=0;exitDy=0;entryX=0;entryY=0.5;entryDx=0;entryDy=0;entryPerimeter=0;strokeWidth=2;" edge="1" parent="1" source="7rffKDkid3tjZV2UipF3-51" target="7rffKDkid3tjZV2UipF3-49">
          <mxGeometry width="160" relative="1" as="geometry">
            <mxPoint x="-800" as="sourcePoint" />
            <mxPoint x="-640" as="targetPoint" />
          </mxGeometry>
        </mxCell>
        <mxCell id="tiqXGuEHnp4EDLRBs4JA-7" value="" style="edgeStyle=elbowEdgeStyle;html=1;endArrow=open;elbow=vertical;endFill=1;strokeWidth=1;" edge="1" parent="1" source="tiqXGuEHnp4EDLRBs4JA-4" target="7rffKDkid3tjZV2UipF3-49">
          <mxGeometry width="160" relative="1" as="geometry">
            <mxPoint x="-670" y="-100" as="sourcePoint" />
            <mxPoint x="-510" y="-100" as="targetPoint" />
          </mxGeometry>
        </mxCell>
        <mxCell id="tiqXGuEHnp4EDLRBs4JA-9" value="" style="group" vertex="1" connectable="0" parent="1">
          <mxGeometry x="-950" y="40" width="160" height="380" as="geometry" />
        </mxCell>
        <mxCell id="7rffKDkid3tjZV2UipF3-49" value="Inbox" style="html=1;outlineConnect=0;whiteSpace=wrap;fillColor=#AFFFAF;shape=mxgraph.archimate3.application;appType=path;archiType=square;verticalAlign=top;" parent="tiqXGuEHnp4EDLRBs4JA-9" vertex="1">
          <mxGeometry width="160" height="380" as="geometry" />
        </mxCell>
        <mxCell id="tiqXGuEHnp4EDLRBs4JA-8" value="" style="html=1;outlineConnect=0;whiteSpace=wrap;fillColor=#AFFFAF;shape=mxgraph.archimate3.application;appType=proc;archiType=rounded;" vertex="1" parent="tiqXGuEHnp4EDLRBs4JA-9">
          <mxGeometry x="22.5" y="242.5" width="115" height="40" as="geometry" />
        </mxCell>
        <mxCell id="tiqXGuEHnp4EDLRBs4JA-12" value="" style="edgeStyle=elbowEdgeStyle;html=1;endArrow=open;elbow=vertical;endFill=0;dashed=1;dashPattern=1 4;strokeWidth=2;" edge="1" parent="1" source="dKYVOy73eWO02Rp_x5jJ-20" target="tiqXGuEHnp4EDLRBs4JA-8">
          <mxGeometry width="160" relative="1" as="geometry">
            <mxPoint x="-1040" y="300" as="sourcePoint" />
            <mxPoint x="-650" y="450" as="targetPoint" />
          </mxGeometry>
        </mxCell>
        <mxCell id="tiqXGuEHnp4EDLRBs4JA-13" value="Service Node" style="html=1;outlineConnect=0;whiteSpace=wrap;fillColor=#AFFFAF;shape=mxgraph.archimate3.application;appType=node;archiType=square;" vertex="1" parent="1">
          <mxGeometry x="-460" y="-120" width="150" height="45" as="geometry" />
        </mxCell>
        <mxCell id="tiqXGuEHnp4EDLRBs4JA-14" value="" style="group" vertex="1" connectable="0" parent="1">
          <mxGeometry x="-650" y="362.5" width="160" height="380" as="geometry" />
        </mxCell>
        <mxCell id="tiqXGuEHnp4EDLRBs4JA-15" value="TempInbox" style="html=1;outlineConnect=0;whiteSpace=wrap;fillColor=#AFFFAF;shape=mxgraph.archimate3.application;appType=path;archiType=square;verticalAlign=top;" vertex="1" parent="tiqXGuEHnp4EDLRBs4JA-14">
          <mxGeometry width="160" height="380" as="geometry" />
        </mxCell>
        <mxCell id="tiqXGuEHnp4EDLRBs4JA-16" value="" style="html=1;outlineConnect=0;whiteSpace=wrap;fillColor=#AFFFAF;shape=mxgraph.archimate3.application;appType=proc;archiType=rounded;" vertex="1" parent="tiqXGuEHnp4EDLRBs4JA-14">
          <mxGeometry x="22.5" y="242.5" width="115" height="40" as="geometry" />
        </mxCell>
      </root>
    </mxGraphModel>
  </diagram>
</mxfile>
